<?xml version="1.0" encoding="utf-8"?>
<svg version="1.1"
     xmlns="http://www.w3.org/2000/svg"
     x="0px" y="0px"
     viewBox="0 0 512 512"
     style="enable-background:new 0 0 512 512;"
     xml:space="preserve">
    <style>
        .fill-color { fill: var(--fill-color); }
    </style>
    <g style="--fill-color: #D64550;">
        <path class="fill-color" d="M239.9,360h-23.4l-62.3,74.8C143,448.2,126.4,456,108.8,456H107c-32.6,0-59-26.5-59-59V296c0.1-53,43-95.9,96-96h95.9v-32
	            H144c-70.7,0.1-127.9,57.3-128,128v101c0.1,50.3,40.8,91,91,91h1.8c27,0,52.7-12,70-32.8l52.7-63.2h8.4V360z"/>
        <polygon class="fill-color"
                points="152,248 120,248 120,288 80,288 80,320 120,320 120,360 152,360 152,320 192,320 192,288 152,288 "/>
        <polygon class="fill-color"
                points="188,130.3 235.9,80 235.0,392 271.9,392 271.9,78.4 324.8,130.3 346.4,107.7 255.9,17.2 165.4,107.7 "/>
        <rect class="fill-color" x="314.4" y="168" width="121.2" height="32"/>
        <rect class="fill-color" x="314.4" y="232" width="183.3" height="32"/>
        <rect class="fill-color" x="314.4" y="295.9" width="183.3" height="32"/>
        <rect class="fill-color" x="314.4" y="359.8" width="183.3" height="32"/>
        <rect class="fill-color" x="375" y="423.7" width="122.7" height="32"/>
     </g>
</svg>
